<svg xmlns="http://www.w3.org/2000/svg" xmlns:xlink="http://www.w3.org/1999/xlink" width="164.232" height="61" viewBox="0 0 164.232 61">
  <defs>
    <linearGradient id="linear-gradient" x1="0.418" y1="0.242" x2="0.552" y2="0.946" gradientUnits="objectBoundingBox">
      <stop offset="0" stop-color="#fe076a"/>
      <stop offset="1" stop-color="#0edeff"/>
    </linearGradient>
    <filter id="IsCool" x="45.807" y="7.615" width="75.5" height="52.5" filterUnits="userSpaceOnUse">
      <feOffset dy="3" input="SourceAlpha"/>
      <feGaussianBlur stdDeviation="3" result="blur"/>
      <feFlood flood-opacity="0.161"/>
      <feComposite operator="in" in2="blur"/>
      <feComposite in="SourceGraphic"/>
    </filter>
    <filter id="AR" x="103.57" y="0" width="60" height="61" filterUnits="userSpaceOnUse">
      <feOffset dy="3" input="SourceAlpha"/>
      <feGaussianBlur stdDeviation="3" result="blur-2"/>
      <feFlood flood-opacity="0.161"/>
      <feComposite operator="in" in2="blur-2"/>
      <feComposite in="SourceGraphic"/>
    </filter>
    <filter id="Linha_37" x="47.611" y="37.922" width="116.621" height="19" filterUnits="userSpaceOnUse">
      <feOffset dy="3" input="SourceAlpha"/>
      <feGaussianBlur stdDeviation="3" result="blur-3"/>
      <feFlood flood-opacity="0.161"/>
      <feComposite operator="in" in2="blur-3"/>
      <feComposite in="SourceGraphic"/>
    </filter>
  </defs>
  <g id="logo-iscoolar" transform="translate(-4179.768 -895.61)">
    <g id="favicon" transform="translate(4180.386 907.174)">
      <path id="Caminho_23" data-name="Caminho 23" d="M25.709,35.736h8.347a6.3,6.3,0,0,1,4.1,1.516L46.22,44.17a1.636,1.636,0,0,0,1.93.162c8.391-5.311-1.787-26.268-3.8-30.073-.214-.4-.566-2.594-.995-2.751L36.568,9.041a1.987,1.987,0,0,0-1.782.214,11.62,11.62,0,0,1-2.341,1.222H19.214a14.7,14.7,0,0,1-2.581-1.222,1.987,1.987,0,0,0-1.782-.214L8.068,11.507c-.429.156-.781,2.347-.995,2.751-2.017,3.8-12.195,24.763-3.8,30.073A1.639,1.639,0,0,0,5.2,44.17l8.066-6.917a6.3,6.3,0,0,1,4.1-1.516Z" transform="translate(0 -8.921)" stroke="#040404" stroke-width="1.2" fill="url(#linear-gradient)"/>
      <circle id="Elipse_9" data-name="Elipse 9" cx="3.534" cy="3.534" r="3.534" transform="translate(28.97 15.328)" fill="#c4e634"/>
      <circle id="Elipse_10" data-name="Elipse 10" cx="3.534" cy="3.534" r="3.534" transform="translate(8.647 6.492)" fill="#c4e634"/>
      <circle id="Elipse_11" data-name="Elipse 11" cx="1.767" cy="1.767" r="1.767" transform="translate(36.923 4.725)" fill="#ebba16"/>
      <circle id="Elipse_12" data-name="Elipse 12" cx="1.767" cy="1.767" r="1.767" transform="translate(33.388 8.259)" fill="#7383bf"/>
      <circle id="Elipse_13" data-name="Elipse 13" cx="1.767" cy="1.767" r="1.767" transform="translate(40.457 8.259)" fill="#d75a4a"/>
      <circle id="Elipse_14" data-name="Elipse 14" cx="1.767" cy="1.767" r="1.767" transform="translate(36.923 11.794)" fill="#61b872"/>
      <path id="Caminho_24" data-name="Caminho 24" d="M31.088,11.592a2.612,2.612,0,0,0-.048-.5.952.952,0,0,0-.19-.414H28.66c-.075.006-.146.027-.222.027s-.148-.019-.222-.027h-2.2a.883.883,0,0,0-.17.353,2.65,2.65,0,1,0,5.241.557Z" transform="translate(-3.001 -9.126)" fill="#c4e634"/>
      <path id="Caminho_25" data-name="Caminho 25" d="M25.973,27.455h-2.9v-2.9a.631.631,0,0,0-.631-.631H20.166a.631.631,0,0,0-.631.631v2.9h-2.9a.631.631,0,0,0-.631.631v2.272a.631.631,0,0,0,.631.631h2.9v2.9a.631.631,0,0,0,.631.631h2.272a.631.631,0,0,0,.631-.631v-2.9h2.9a.631.631,0,0,0,.631-.631V28.086A.63.63,0,0,0,25.973,27.455Z" transform="translate(-1.862 -10.667)" fill="#c4e634"/>
    </g>
    <g id="Grupo_134" data-name="Grupo 134" transform="translate(-7.175 -4.216)">
      <g transform="matrix(1, 0, 0, 1, 4186.94, 899.83)" filter="url(#IsCool)">
        <text id="IsCool-2" data-name="IsCool" transform="translate(56.06 37.86)" fill="#fff" stroke="#fff" stroke-width="1.25" font-size="20" font-family="MVBoli, MV Boli"><tspan x="0" y="0">IsCool</tspan></text>
      </g>
      <g transform="matrix(1, 0, 0, 1, 4186.94, 899.83)" filter="url(#AR)">
        <text id="AR-2" data-name="AR" transform="translate(112.57 38)" fill="#fff" font-size="30" font-family="Poppins-Bold, Poppins" font-weight="700"><tspan x="0" y="0">AR</tspan></text>
      </g>
      <g transform="matrix(1, 0, 0, 1, 4186.94, 899.83)" filter="url(#Linha_37)">
        <line id="Linha_37-2" data-name="Linha 37" x2="98.62" transform="translate(56.61 44.42)" fill="none" stroke="#fff" stroke-width="1"/>
      </g>
    </g>
  </g>
</svg>
